PathFileType	4	(X/Y/Z)	Patient4_TMGait_0pt8_01_right_26.trc.trc
DataRate	CameraRate	NumFrames	NumMarkers	Units	OrigDataRate	OrigDataStartFrame	OrigNumFrames
88.607594936709	88.607594936709	4	33	mm	88.607594936709	53	       141
Frame#	Time	Sacral			L.Shoulder			Chest			R.Shoulder			Neck			R.ASIS			L.ASIS			R.Thigh.Superior			R.Thigh.Lateral			R.Thigh.Inferior			R.Patella			L.Thigh.Superior			L.Thigh.Lateral			L.Thigh.Inferior			L.Patella			L.Shank.Superior			L.Shank.Lateral			L.Shank.Inferior			R.Shank.Superior			R.Shank.Lateral			R.Shank.Inferior			R.Heel			R.Midfoot.Superior			R.Midfoot.Lateral			R.Toe			L.Heel			L.Midfoot.Lateral			L.Midfoot.Superior			L.Toe			L.Elbow			L.Wrist			R.Elbow			R.Wrist			
		X1	Y1	Z1	X2	Y2	Z2	X3	Y3	Z3	X4	Y4	Z4	X5	Y5	Z5	X6	Y6	Z6	X7	Y7	Z7	X8	Y8	Z8	X9	Y9	Z9	X10	Y10	Z10	X11	Y11	Z11	X12	Y12	Z12	X13	Y13	Z13	X14	Y14	Z14	X15	Y15	Z15	X16	Y16	Z16	X17	Y17	Z17	X18	Y18	Z18	X19	Y19	Z19	X20	Y20	Z20	X21	Y21	Z21	X22	Y22	Z22	X23	Y23	Z23	X24	Y24	Z24	X25	Y25	Z25	X26	Y26	Z26	X27	Y27	Z27	X28	Y28	Z28	X29	Y29	Z29	X30	Y30	Z30	X31	Y31	Z31	X32	Y32	Z32	X33	Y33	Z33	

53	29.646857142857	870.727560660183	1009.324365541735	501.535264526579	1031.632128262434	1427.194496878210	295.000082408733	1148.181740280365	1363.359459197065	449.420197040290	1080.998806420121	1441.648188464391	628.527438377659	1031.232472072426	1494.588509203247	448.546660647323	1102.442413143651	942.834031055307	603.316945500880	1070.005750686219	961.739837715543	330.889785622024	1130.927410903526	736.493804158143	570.991176813411	1042.386087276204	633.767428900389	634.272695923547	1110.003869543966	575.982137002403	551.166951946677	1101.397388586094	487.380515181929	556.659342149439	1161.421771057208	791.475163524020	360.712860637219	1127.154127296062	663.816283530892	278.366935159981	1235.818979792113	607.642480978475	338.383801512357	1256.098119127840	520.137343051996	328.890904836884	1196.543186694318	448.257557660461	318.892136775201	1059.728062546801	389.706298241066	275.254381789739	1069.863981857888	256.965888109272	321.108226613833	1068.255399402537	400.407603333538	564.019654672901	989.616110652554	301.473486720428	624.350619812056	1026.038685889887	204.334406552083	560.857549175545	883.478109827008	43.244751743848	526.974232508304	1054.006290983394	97.857115592418	571.604955353480	962.917944582365	37.333096457892	606.527284763860	1171.514328839575	43.189454871092	606.419843973784	895.282254551188	169.264967111012	367.277563409843	949.114855216868	130.750256662270	281.155254483556	1054.157490611975	148.362967669026	295.149137413727	1137.940122497404	44.847022045776	257.000960332904	996.269288366815	1067.202610477370	206.117713538586	1136.522590712616	847.866896370077	199.622414908614	1093.994659051681	1096.942886392742	762.590518057445	1303.734900477615	951.578156040026	723.477038117440	
54	29.658142857143	869.615023025489	1009.632721615221	502.755952399745	1030.151310065339	1427.007396142592	295.715810446885	1147.561806800381	1363.171116617066	449.439932114360	1081.655204560444	1441.687414151172	628.936027307547	1030.813885131207	1494.539304890166	449.242027425356	1101.701257057941	942.431467340748	603.203470717106	1067.815314749421	962.142198807799	330.883349819593	1127.239523813033	735.351452591819	570.105362324760	1037.874713732344	633.608531294188	634.336350855287	1103.911004319325	574.948001416288	550.823108083723	1094.179971096548	486.678477040474	556.452410855568	1160.570264152967	794.185839060726	360.647678024810	1127.357345436299	665.318878998749	278.751487769032	1237.137873263306	611.185429277665	337.974070288914	1259.226873605948	524.981746675673	328.540978022397	1203.627013979186	451.398315610339	318.585014731223	1070.671240793260	384.268592946676	275.879634541050	1090.175186094702	252.108542152803	321.016830185160	1060.713707948862	399.882534133936	563.945348864214	981.687532876673	301.331260723418	624.388738078687	1017.515115335455	204.050398573880	560.858959041249	874.404637225267	43.193028288495	527.086954642741	1044.863661738460	97.799373861846	571.599877508483	953.809726933576	37.291456997160	606.583876013616	1162.391851890320	43.136669111878	606.504216363315	922.617861725575	151.106690349472	368.642134086360	978.275653282577	118.287682088817	281.254145612535	1081.855859313381	143.706912890523	294.359775775237	1173.159537319709	47.769877034444	253.650897714495	990.978069268925	1066.457825567969	210.309086685461	1112.485813580408	835.857745350137	204.139984855044	1106.409102960977	1097.493313959902	761.524426902186	1326.310442488779	971.075089530388	716.452226599903	
55	29.669428571429	868.589922573619	1009.856916326846	503.779341968984	1028.851807931294	1426.744596959104	296.362883807173	1147.082681165267	1362.854859947948	449.399240654517	1082.454575011196	1441.641945324242	629.249082983750	1030.509742599499	1494.383860732757	449.869483719209	1101.005946473169	941.918971875079	602.943556849345	1065.804979493424	962.436433213734	330.692044046788	1123.530821996592	734.122589541252	569.210974473756	1033.309571059140	633.354214959676	634.329288312276	1097.828339486722	573.843959113333	550.473570029665	1086.980710108670	485.953147081567	556.235108126224	1159.439655674021	796.286505023148	360.368937030610	1126.954074608383	666.262069751513	279.045576374440	1237.544840847001	613.865249556514	337.671427328887	1261.308967450136	529.222821342164	328.370739107481	1209.927258747264	454.201349975976	318.468451622655	1081.846460575876	378.374611965903	276.121855625751	1110.734172712988	247.497248137140	320.940488502313	1053.171104964989	399.339650956322	563.844529175022	973.777540097141	301.185290428173	624.405786180892	1008.988225260974	203.763369538404	560.844963278539	865.340600887532	43.140618444680	527.210959135349	1035.713874332069	97.723376008323	571.571604049658	944.702199465114	37.248603327976	606.633697419540	1153.276760209240	43.070643692403	606.584790751821	951.152574801224	133.527670262560	369.258025305149	1008.739061134018	106.370114173681	281.118727023669	1110.156563815698	139.589444981576	293.875633129204	1208.683495872338	51.674427597906	251.563610769248	985.441540255321	1065.886939332066	214.064687781650	1088.148522789645	826.009948885159	208.625005676564	1118.935840593453	1098.450463737009	760.073816668176	1347.245886555544	991.812299457455	709.096405724074	
56	29.680714285714	867.675856673062	1009.974786478004	504.604404618752	1027.744448382166	1426.399981163303	296.924051293410	1146.747283009374	1362.396979480976	449.285398489692	1083.391639372352	1441.489017190069	629.453144984357	1030.330537400984	1494.110539805203	450.419813160605	1100.361850623689	941.293155305205	602.547417373920	1063.996762298144	962.582398821148	330.326938547446	1119.847453266280	732.813097802666	568.361740902726	1028.707292341663	633.002307948518	634.265815088424	1091.806794730264	572.671375646545	550.155027219680	1079.849212661591	485.199195466396	556.030926735095	1158.061605741290	797.722342955350	359.933735569498	1126.046913677784	666.674720734050	279.216173470482	1237.092330475706	615.636888080374	337.555725994917	1262.420567715180	532.825397122269	328.458971447401	1215.452229156789	456.679655893352	318.604712842142	1093.289979686153	372.264632264262	275.924703115691	1131.311609285028	243.400846344111	320.917309949762	1045.665902255291	398.773381336820	563.728605812496	965.912779857608	301.036649467943	624.409036393656	1000.478040403405	203.469701160636	560.818997016758	856.283471328528	43.091324502539	527.345001552585	1026.560915556173	97.626496348962	571.520580282501	935.597356029486	37.207999596143	606.679109337024	1144.173306010056	42.987557639873	606.664371445137	980.489707213996	117.115511356784	369.029238386302	1040.192274647884	95.461303780833	280.754857166791	1138.737316131734	136.302313799115	293.775756435337	1244.057244072041	56.702472867520	251.036285300122	979.554529671116	1065.518740405870	217.316257457041	1063.914337396161	818.354540917990	213.002019664622	1131.548662134057	1099.805011666581	758.270475406480	1366.413354452082	1013.523104320381	701.515659987796	
